<mxfile host="app.diagrams.net" modified="2021-08-12T08:21:02.028Z" agent="5.0 (Windows NT 10.0; Win64; x64) AppleWebKit/537.36 (KHTML, like Gecko) Chrome/92.0.4515.107 Safari/537.36" etag="JBKefBEf5xw0koe2lCBw" version="14.9.3" type="github">
  <diagram id="a-F4BLhgfyV2jhySdkH5" name="Page-1">
    <mxGraphModel dx="5190" dy="2875" grid="1" gridSize="10" guides="1" tooltips="1" connect="1" arrows="1" fold="1" page="1" pageScale="1" pageWidth="1200" pageHeight="1920" math="0" shadow="0">
      <root>
        <mxCell id="0" />
        <mxCell id="1" parent="0" />
        <mxCell id="9kW-robpji65stOi1-1t-1" value="" style="endArrow=none;html=1;verticalAlign=top;horizontal=1;align=center;strokeWidth=2;" edge="1" parent="1">
          <mxGeometry width="50" height="50" relative="1" as="geometry">
            <mxPoint x="445" y="818" as="sourcePoint" />
            <mxPoint x="1275" y="818" as="targetPoint" />
          </mxGeometry>
        </mxCell>
        <mxCell id="9kW-robpji65stOi1-1t-2" value="" style="endArrow=none;dashed=1;html=1;dashPattern=1 3;strokeWidth=2;align=center;verticalAlign=top;" edge="1" parent="1">
          <mxGeometry width="50" height="50" relative="1" as="geometry">
            <mxPoint x="465" y="990" as="sourcePoint" />
            <mxPoint x="465" y="820" as="targetPoint" />
          </mxGeometry>
        </mxCell>
        <mxCell id="9kW-robpji65stOi1-1t-3" value="" style="endArrow=none;dashed=1;html=1;dashPattern=1 3;strokeWidth=2;align=center;verticalAlign=top;" edge="1" parent="1">
          <mxGeometry width="50" height="50" relative="1" as="geometry">
            <mxPoint x="635" y="990" as="sourcePoint" />
            <mxPoint x="635" y="820" as="targetPoint" />
          </mxGeometry>
        </mxCell>
        <mxCell id="9kW-robpji65stOi1-1t-4" value="&lt;font style=&quot;font-size: 18px&quot;&gt;&lt;b&gt;Gauge&lt;/b&gt;&lt;/font&gt;" style="text;html=1;strokeColor=none;fillColor=none;align=center;verticalAlign=middle;whiteSpace=wrap;rounded=0;" vertex="1" parent="1">
          <mxGeometry x="335" y="890" width="70" height="20" as="geometry" />
        </mxCell>
        <mxCell id="9kW-robpji65stOi1-1t-5" value="" style="endArrow=none;html=1;verticalAlign=top;horizontal=1;align=center;strokeWidth=2;" edge="1" parent="1">
          <mxGeometry width="50" height="50" relative="1" as="geometry">
            <mxPoint x="445" y="990" as="sourcePoint" />
            <mxPoint x="1275" y="990" as="targetPoint" />
          </mxGeometry>
        </mxCell>
        <mxCell id="9kW-robpji65stOi1-1t-6" value="&lt;font style=&quot;font-size: 24px&quot;&gt;&lt;b&gt;StatsD&lt;/b&gt;&lt;/font&gt;" style="rounded=1;whiteSpace=wrap;html=1;" vertex="1" parent="1">
          <mxGeometry x="805" y="790" width="110" height="230" as="geometry" />
        </mxCell>
        <mxCell id="9kW-robpji65stOi1-1t-7" value="1" style="whiteSpace=wrap;html=1;aspect=fixed;fillColor=#dae8fc;strokeColor=#6c8ebf;" vertex="1" parent="1">
          <mxGeometry x="475" y="830" width="30" height="30" as="geometry" />
        </mxCell>
        <mxCell id="9kW-robpji65stOi1-1t-8" value="2" style="whiteSpace=wrap;html=1;aspect=fixed;fillColor=#dae8fc;strokeColor=#6c8ebf;" vertex="1" parent="1">
          <mxGeometry x="515" y="830" width="30" height="30" as="geometry" />
        </mxCell>
        <mxCell id="9kW-robpji65stOi1-1t-9" value="4" style="whiteSpace=wrap;html=1;aspect=fixed;fillColor=#dae8fc;strokeColor=#6c8ebf;" vertex="1" parent="1">
          <mxGeometry x="595" y="830" width="30" height="30" as="geometry" />
        </mxCell>
        <mxCell id="9kW-robpji65stOi1-1t-10" value="1" style="whiteSpace=wrap;html=1;aspect=fixed;fillColor=#dae8fc;strokeColor=#6c8ebf;" vertex="1" parent="1">
          <mxGeometry x="475" y="870" width="30" height="30" as="geometry" />
        </mxCell>
        <mxCell id="9kW-robpji65stOi1-1t-11" value="+3" style="whiteSpace=wrap;html=1;aspect=fixed;fillColor=#dae8fc;strokeColor=#6c8ebf;" vertex="1" parent="1">
          <mxGeometry x="555" y="870" width="30" height="30" as="geometry" />
        </mxCell>
        <mxCell id="9kW-robpji65stOi1-1t-12" value="+8" style="whiteSpace=wrap;html=1;aspect=fixed;fillColor=#dae8fc;strokeColor=#6c8ebf;" vertex="1" parent="1">
          <mxGeometry x="595" y="870" width="30" height="30" as="geometry" />
        </mxCell>
        <mxCell id="9kW-robpji65stOi1-1t-13" value="9" style="whiteSpace=wrap;html=1;aspect=fixed;fillColor=#dae8fc;strokeColor=#6c8ebf;" vertex="1" parent="1">
          <mxGeometry x="475" y="910" width="30" height="30" as="geometry" />
        </mxCell>
        <mxCell id="9kW-robpji65stOi1-1t-14" value="-1" style="whiteSpace=wrap;html=1;aspect=fixed;fillColor=#dae8fc;strokeColor=#6c8ebf;" vertex="1" parent="1">
          <mxGeometry x="515" y="910" width="30" height="30" as="geometry" />
        </mxCell>
        <mxCell id="9kW-robpji65stOi1-1t-15" value="-3" style="whiteSpace=wrap;html=1;aspect=fixed;fillColor=#dae8fc;strokeColor=#6c8ebf;" vertex="1" parent="1">
          <mxGeometry x="555" y="910" width="30" height="30" as="geometry" />
        </mxCell>
        <mxCell id="9kW-robpji65stOi1-1t-16" value="-2" style="whiteSpace=wrap;html=1;aspect=fixed;fillColor=#dae8fc;strokeColor=#6c8ebf;" vertex="1" parent="1">
          <mxGeometry x="595" y="910" width="30" height="30" as="geometry" />
        </mxCell>
        <mxCell id="9kW-robpji65stOi1-1t-17" value="-9" style="whiteSpace=wrap;html=1;aspect=fixed;fillColor=#dae8fc;strokeColor=#6c8ebf;" vertex="1" parent="1">
          <mxGeometry x="515" y="950" width="30" height="30" as="geometry" />
        </mxCell>
        <mxCell id="9kW-robpji65stOi1-1t-18" value="-2" style="whiteSpace=wrap;html=1;aspect=fixed;fillColor=#dae8fc;strokeColor=#6c8ebf;" vertex="1" parent="1">
          <mxGeometry x="595" y="950" width="30" height="30" as="geometry" />
        </mxCell>
        <mxCell id="9kW-robpji65stOi1-1t-19" value="" style="endArrow=none;dashed=1;html=1;dashPattern=1 3;strokeWidth=2;align=center;verticalAlign=top;" edge="1" parent="1">
          <mxGeometry width="50" height="50" relative="1" as="geometry">
            <mxPoint x="1085" y="990" as="sourcePoint" />
            <mxPoint x="1085" y="820" as="targetPoint" />
          </mxGeometry>
        </mxCell>
        <mxCell id="9kW-robpji65stOi1-1t-20" value="" style="endArrow=none;dashed=1;html=1;dashPattern=1 3;strokeWidth=2;align=center;verticalAlign=top;" edge="1" parent="1">
          <mxGeometry width="50" height="50" relative="1" as="geometry">
            <mxPoint x="1255" y="990" as="sourcePoint" />
            <mxPoint x="1255" y="820" as="targetPoint" />
          </mxGeometry>
        </mxCell>
        <mxCell id="9kW-robpji65stOi1-1t-21" value="3" style="whiteSpace=wrap;html=1;aspect=fixed;fillColor=#dae8fc;strokeColor=#6c8ebf;" vertex="1" parent="1">
          <mxGeometry x="555" y="830" width="30" height="30" as="geometry" />
        </mxCell>
        <mxCell id="9kW-robpji65stOi1-1t-22" value="+1" style="whiteSpace=wrap;html=1;aspect=fixed;fillColor=#dae8fc;strokeColor=#6c8ebf;" vertex="1" parent="1">
          <mxGeometry x="515" y="870" width="30" height="30" as="geometry" />
        </mxCell>
        <mxCell id="9kW-robpji65stOi1-1t-23" value="15" style="whiteSpace=wrap;html=1;aspect=fixed;fillColor=#dae8fc;strokeColor=#6c8ebf;" vertex="1" parent="1">
          <mxGeometry x="475" y="950" width="30" height="30" as="geometry" />
        </mxCell>
        <mxCell id="9kW-robpji65stOi1-1t-24" value="+3" style="whiteSpace=wrap;html=1;aspect=fixed;fillColor=#dae8fc;strokeColor=#6c8ebf;" vertex="1" parent="1">
          <mxGeometry x="555" y="950" width="30" height="30" as="geometry" />
        </mxCell>
        <mxCell id="9kW-robpji65stOi1-1t-25" value="&lt;font style=&quot;font-size: 18px&quot;&gt;13:40:00&lt;/font&gt;" style="text;html=1;strokeColor=none;fillColor=none;align=center;verticalAlign=middle;whiteSpace=wrap;rounded=0;" vertex="1" parent="1">
          <mxGeometry x="435" y="790" width="60" height="20" as="geometry" />
        </mxCell>
        <mxCell id="9kW-robpji65stOi1-1t-26" value="&lt;font style=&quot;font-size: 18px&quot;&gt;13:45:00&lt;/font&gt;" style="text;html=1;strokeColor=none;fillColor=none;align=center;verticalAlign=middle;whiteSpace=wrap;rounded=0;" vertex="1" parent="1">
          <mxGeometry x="605" y="790" width="60" height="20" as="geometry" />
        </mxCell>
        <mxCell id="9kW-robpji65stOi1-1t-27" value="&lt;font style=&quot;font-size: 18px&quot;&gt;13:45:00&lt;/font&gt;" style="text;html=1;strokeColor=none;fillColor=none;align=center;verticalAlign=middle;whiteSpace=wrap;rounded=0;" vertex="1" parent="1">
          <mxGeometry x="1055" y="790" width="60" height="20" as="geometry" />
        </mxCell>
        <mxCell id="9kW-robpji65stOi1-1t-28" value="&lt;font style=&quot;font-size: 18px&quot;&gt;13:50:00&lt;/font&gt;" style="text;html=1;strokeColor=none;fillColor=none;align=center;verticalAlign=middle;whiteSpace=wrap;rounded=0;" vertex="1" parent="1">
          <mxGeometry x="1225" y="790" width="60" height="20" as="geometry" />
        </mxCell>
        <mxCell id="9kW-robpji65stOi1-1t-29" value="12" style="whiteSpace=wrap;html=1;aspect=fixed;fillColor=#dae8fc;strokeColor=#6c8ebf;" vertex="1" parent="1">
          <mxGeometry x="645" y="830" width="30" height="30" as="geometry" />
        </mxCell>
        <mxCell id="9kW-robpji65stOi1-1t-30" value="15" style="whiteSpace=wrap;html=1;aspect=fixed;fillColor=#dae8fc;strokeColor=#6c8ebf;" vertex="1" parent="1">
          <mxGeometry x="685" y="830" width="30" height="30" as="geometry" />
        </mxCell>
        <mxCell id="9kW-robpji65stOi1-1t-31" value="9" style="whiteSpace=wrap;html=1;aspect=fixed;fillColor=#dae8fc;strokeColor=#6c8ebf;" vertex="1" parent="1">
          <mxGeometry x="765" y="830" width="30" height="30" as="geometry" />
        </mxCell>
        <mxCell id="9kW-robpji65stOi1-1t-32" value="5" style="whiteSpace=wrap;html=1;aspect=fixed;fillColor=#dae8fc;strokeColor=#6c8ebf;" vertex="1" parent="1">
          <mxGeometry x="645" y="870" width="30" height="30" as="geometry" />
        </mxCell>
        <mxCell id="9kW-robpji65stOi1-1t-33" value="7" style="whiteSpace=wrap;html=1;aspect=fixed;fillColor=#dae8fc;strokeColor=#6c8ebf;" vertex="1" parent="1">
          <mxGeometry x="725" y="870" width="30" height="30" as="geometry" />
        </mxCell>
        <mxCell id="9kW-robpji65stOi1-1t-34" value="+8" style="whiteSpace=wrap;html=1;aspect=fixed;fillColor=#dae8fc;strokeColor=#6c8ebf;" vertex="1" parent="1">
          <mxGeometry x="765" y="870" width="30" height="30" as="geometry" />
        </mxCell>
        <mxCell id="9kW-robpji65stOi1-1t-35" value="9" style="whiteSpace=wrap;html=1;aspect=fixed;fillColor=#dae8fc;strokeColor=#6c8ebf;" vertex="1" parent="1">
          <mxGeometry x="645" y="910" width="30" height="30" as="geometry" />
        </mxCell>
        <mxCell id="9kW-robpji65stOi1-1t-36" value="+3" style="whiteSpace=wrap;html=1;aspect=fixed;fillColor=#dae8fc;strokeColor=#6c8ebf;" vertex="1" parent="1">
          <mxGeometry x="685" y="910" width="30" height="30" as="geometry" />
        </mxCell>
        <mxCell id="9kW-robpji65stOi1-1t-37" value="-2" style="whiteSpace=wrap;html=1;aspect=fixed;fillColor=#dae8fc;strokeColor=#6c8ebf;" vertex="1" parent="1">
          <mxGeometry x="725" y="910" width="30" height="30" as="geometry" />
        </mxCell>
        <mxCell id="9kW-robpji65stOi1-1t-38" value="+6" style="whiteSpace=wrap;html=1;aspect=fixed;fillColor=#dae8fc;strokeColor=#6c8ebf;" vertex="1" parent="1">
          <mxGeometry x="765" y="910" width="30" height="30" as="geometry" />
        </mxCell>
        <mxCell id="9kW-robpji65stOi1-1t-39" value="18" style="whiteSpace=wrap;html=1;aspect=fixed;fillColor=#dae8fc;strokeColor=#6c8ebf;" vertex="1" parent="1">
          <mxGeometry x="685" y="950" width="30" height="30" as="geometry" />
        </mxCell>
        <mxCell id="9kW-robpji65stOi1-1t-40" value="16" style="whiteSpace=wrap;html=1;aspect=fixed;fillColor=#dae8fc;strokeColor=#6c8ebf;" vertex="1" parent="1">
          <mxGeometry x="765" y="950" width="30" height="30" as="geometry" />
        </mxCell>
        <mxCell id="9kW-robpji65stOi1-1t-41" value="3" style="whiteSpace=wrap;html=1;aspect=fixed;fillColor=#dae8fc;strokeColor=#6c8ebf;" vertex="1" parent="1">
          <mxGeometry x="725" y="830" width="30" height="30" as="geometry" />
        </mxCell>
        <mxCell id="9kW-robpji65stOi1-1t-42" value="+6" style="whiteSpace=wrap;html=1;aspect=fixed;fillColor=#dae8fc;strokeColor=#6c8ebf;" vertex="1" parent="1">
          <mxGeometry x="685" y="870" width="30" height="30" as="geometry" />
        </mxCell>
        <mxCell id="9kW-robpji65stOi1-1t-43" value="13" style="whiteSpace=wrap;html=1;aspect=fixed;fillColor=#dae8fc;strokeColor=#6c8ebf;" vertex="1" parent="1">
          <mxGeometry x="645" y="950" width="30" height="30" as="geometry" />
        </mxCell>
        <mxCell id="9kW-robpji65stOi1-1t-44" value="20" style="whiteSpace=wrap;html=1;aspect=fixed;fillColor=#dae8fc;strokeColor=#6c8ebf;" vertex="1" parent="1">
          <mxGeometry x="725" y="950" width="30" height="30" as="geometry" />
        </mxCell>
        <mxCell id="9kW-robpji65stOi1-1t-45" value="4" style="rounded=0;whiteSpace=wrap;html=1;verticalAlign=middle;fillColor=#f5f5f5;strokeColor=#666666;fontColor=#333333;" vertex="1" parent="1">
          <mxGeometry x="925" y="830" width="150" height="30" as="geometry" />
        </mxCell>
        <mxCell id="9kW-robpji65stOi1-1t-46" value="13" style="rounded=0;whiteSpace=wrap;html=1;verticalAlign=middle;fillColor=#f5f5f5;strokeColor=#666666;fontColor=#333333;" vertex="1" parent="1">
          <mxGeometry x="925" y="870" width="150" height="30" as="geometry" />
        </mxCell>
        <mxCell id="9kW-robpji65stOi1-1t-47" value="3" style="rounded=0;whiteSpace=wrap;html=1;verticalAlign=middle;fillColor=#f5f5f5;strokeColor=#666666;fontColor=#333333;" vertex="1" parent="1">
          <mxGeometry x="925" y="910" width="150" height="30" as="geometry" />
        </mxCell>
        <mxCell id="9kW-robpji65stOi1-1t-48" value="7" style="rounded=0;whiteSpace=wrap;html=1;verticalAlign=middle;fillColor=#f5f5f5;strokeColor=#666666;fontColor=#333333;" vertex="1" parent="1">
          <mxGeometry x="925" y="950" width="150" height="30" as="geometry" />
        </mxCell>
        <mxCell id="9kW-robpji65stOi1-1t-49" value="9" style="rounded=0;whiteSpace=wrap;html=1;verticalAlign=middle;fillColor=#f5f5f5;strokeColor=#666666;fontColor=#333333;" vertex="1" parent="1">
          <mxGeometry x="1095" y="830" width="150" height="30" as="geometry" />
        </mxCell>
        <mxCell id="9kW-robpji65stOi1-1t-50" value="15" style="rounded=0;whiteSpace=wrap;html=1;verticalAlign=middle;fillColor=#f5f5f5;strokeColor=#666666;fontColor=#333333;" vertex="1" parent="1">
          <mxGeometry x="1095" y="870" width="150" height="30" as="geometry" />
        </mxCell>
        <mxCell id="9kW-robpji65stOi1-1t-51" value="16" style="rounded=0;whiteSpace=wrap;html=1;verticalAlign=middle;fillColor=#f5f5f5;strokeColor=#666666;fontColor=#333333;" vertex="1" parent="1">
          <mxGeometry x="1095" y="910" width="150" height="30" as="geometry" />
        </mxCell>
        <mxCell id="9kW-robpji65stOi1-1t-52" value="16" style="rounded=0;whiteSpace=wrap;html=1;verticalAlign=middle;fillColor=#f5f5f5;strokeColor=#666666;fontColor=#333333;" vertex="1" parent="1">
          <mxGeometry x="1095" y="950" width="150" height="30" as="geometry" />
        </mxCell>
        <mxCell id="9kW-robpji65stOi1-1t-53" value="AAA" style="text;html=1;strokeColor=none;fillColor=none;align=center;verticalAlign=middle;whiteSpace=wrap;rounded=0;" vertex="1" parent="1">
          <mxGeometry x="425" y="835" width="40" height="20" as="geometry" />
        </mxCell>
        <mxCell id="9kW-robpji65stOi1-1t-54" value="BBB" style="text;html=1;strokeColor=none;fillColor=none;align=center;verticalAlign=middle;whiteSpace=wrap;rounded=0;" vertex="1" parent="1">
          <mxGeometry x="425" y="875" width="40" height="20" as="geometry" />
        </mxCell>
        <mxCell id="9kW-robpji65stOi1-1t-55" value="CCC" style="text;html=1;strokeColor=none;fillColor=none;align=center;verticalAlign=middle;whiteSpace=wrap;rounded=0;" vertex="1" parent="1">
          <mxGeometry x="425" y="915" width="40" height="20" as="geometry" />
        </mxCell>
        <mxCell id="9kW-robpji65stOi1-1t-56" value="DDD" style="text;html=1;strokeColor=none;fillColor=none;align=center;verticalAlign=middle;whiteSpace=wrap;rounded=0;" vertex="1" parent="1">
          <mxGeometry x="425" y="955" width="40" height="20" as="geometry" />
        </mxCell>
        <mxCell id="9kW-robpji65stOi1-1t-57" value="&lt;font style=&quot;font-size: 24px&quot;&gt;gaugor:123|g&lt;/font&gt;" style="text;html=1;strokeColor=none;fillColor=none;align=center;verticalAlign=middle;whiteSpace=wrap;rounded=0;" vertex="1" parent="1">
          <mxGeometry x="1310" y="870" width="170" height="40" as="geometry" />
        </mxCell>
        <mxCell id="9kW-robpji65stOi1-1t-58" style="edgeStyle=orthogonalEdgeStyle;rounded=0;orthogonalLoop=1;jettySize=auto;html=1;exitX=0.5;exitY=1;exitDx=0;exitDy=0;strokeWidth=2;align=center;verticalAlign=top;" edge="1" parent="1" source="9kW-robpji65stOi1-1t-57" target="9kW-robpji65stOi1-1t-57">
          <mxGeometry relative="1" as="geometry" />
        </mxCell>
        <mxCell id="9kW-robpji65stOi1-1t-59" value="" style="endArrow=none;html=1;verticalAlign=top;horizontal=1;align=center;strokeWidth=2;" edge="1" parent="1">
          <mxGeometry width="50" height="50" relative="1" as="geometry">
            <mxPoint x="445" y="1128" as="sourcePoint" />
            <mxPoint x="1275" y="1128" as="targetPoint" />
          </mxGeometry>
        </mxCell>
        <mxCell id="9kW-robpji65stOi1-1t-60" value="" style="endArrow=none;dashed=1;html=1;dashPattern=1 3;strokeWidth=2;align=center;verticalAlign=top;" edge="1" parent="1">
          <mxGeometry width="50" height="50" relative="1" as="geometry">
            <mxPoint x="465" y="1300" as="sourcePoint" />
            <mxPoint x="465" y="1130" as="targetPoint" />
          </mxGeometry>
        </mxCell>
        <mxCell id="9kW-robpji65stOi1-1t-61" value="" style="endArrow=none;dashed=1;html=1;dashPattern=1 3;strokeWidth=2;align=center;verticalAlign=top;" edge="1" parent="1">
          <mxGeometry width="50" height="50" relative="1" as="geometry">
            <mxPoint x="635" y="1300" as="sourcePoint" />
            <mxPoint x="635" y="1130" as="targetPoint" />
          </mxGeometry>
        </mxCell>
        <mxCell id="9kW-robpji65stOi1-1t-62" value="&lt;font style=&quot;font-size: 18px&quot;&gt;&lt;b&gt;Set&lt;/b&gt;&lt;/font&gt;" style="text;html=1;strokeColor=none;fillColor=none;align=center;verticalAlign=middle;whiteSpace=wrap;rounded=0;" vertex="1" parent="1">
          <mxGeometry x="335" y="1200" width="70" height="20" as="geometry" />
        </mxCell>
        <mxCell id="9kW-robpji65stOi1-1t-63" value="" style="endArrow=none;html=1;verticalAlign=top;horizontal=1;align=center;strokeWidth=2;" edge="1" parent="1">
          <mxGeometry width="50" height="50" relative="1" as="geometry">
            <mxPoint x="445" y="1300" as="sourcePoint" />
            <mxPoint x="1275" y="1300" as="targetPoint" />
          </mxGeometry>
        </mxCell>
        <mxCell id="9kW-robpji65stOi1-1t-64" value="&lt;font style=&quot;font-size: 24px&quot;&gt;&lt;b&gt;StatsD&lt;/b&gt;&lt;/font&gt;" style="rounded=1;whiteSpace=wrap;html=1;" vertex="1" parent="1">
          <mxGeometry x="805" y="1100" width="110" height="230" as="geometry" />
        </mxCell>
        <mxCell id="9kW-robpji65stOi1-1t-65" value="" style="whiteSpace=wrap;html=1;aspect=fixed;fillColor=#dae8fc;strokeColor=#6c8ebf;" vertex="1" parent="1">
          <mxGeometry x="475" y="1140" width="30" height="30" as="geometry" />
        </mxCell>
        <mxCell id="9kW-robpji65stOi1-1t-66" value="" style="whiteSpace=wrap;html=1;aspect=fixed;fillColor=#dae8fc;strokeColor=#6c8ebf;" vertex="1" parent="1">
          <mxGeometry x="595" y="1140" width="30" height="30" as="geometry" />
        </mxCell>
        <mxCell id="9kW-robpji65stOi1-1t-67" value="" style="whiteSpace=wrap;html=1;aspect=fixed;fillColor=#dae8fc;strokeColor=#6c8ebf;" vertex="1" parent="1">
          <mxGeometry x="475" y="1180" width="30" height="30" as="geometry" />
        </mxCell>
        <mxCell id="9kW-robpji65stOi1-1t-68" value="" style="whiteSpace=wrap;html=1;aspect=fixed;fillColor=#dae8fc;strokeColor=#6c8ebf;" vertex="1" parent="1">
          <mxGeometry x="555" y="1180" width="30" height="30" as="geometry" />
        </mxCell>
        <mxCell id="9kW-robpji65stOi1-1t-69" value="" style="whiteSpace=wrap;html=1;aspect=fixed;fillColor=#dae8fc;strokeColor=#6c8ebf;" vertex="1" parent="1">
          <mxGeometry x="515" y="1220" width="30" height="30" as="geometry" />
        </mxCell>
        <mxCell id="9kW-robpji65stOi1-1t-70" value="" style="whiteSpace=wrap;html=1;aspect=fixed;fillColor=#dae8fc;strokeColor=#6c8ebf;" vertex="1" parent="1">
          <mxGeometry x="595" y="1260" width="30" height="30" as="geometry" />
        </mxCell>
        <mxCell id="9kW-robpji65stOi1-1t-71" value="" style="endArrow=none;dashed=1;html=1;dashPattern=1 3;strokeWidth=2;align=center;verticalAlign=top;" edge="1" parent="1">
          <mxGeometry width="50" height="50" relative="1" as="geometry">
            <mxPoint x="1085" y="1300" as="sourcePoint" />
            <mxPoint x="1085" y="1130" as="targetPoint" />
          </mxGeometry>
        </mxCell>
        <mxCell id="9kW-robpji65stOi1-1t-72" value="" style="endArrow=none;dashed=1;html=1;dashPattern=1 3;strokeWidth=2;align=center;verticalAlign=top;" edge="1" parent="1">
          <mxGeometry width="50" height="50" relative="1" as="geometry">
            <mxPoint x="1255" y="1300" as="sourcePoint" />
            <mxPoint x="1255" y="1130" as="targetPoint" />
          </mxGeometry>
        </mxCell>
        <mxCell id="9kW-robpji65stOi1-1t-73" value="&lt;font style=&quot;font-size: 18px&quot;&gt;13:40:00&lt;/font&gt;" style="text;html=1;strokeColor=none;fillColor=none;align=center;verticalAlign=middle;whiteSpace=wrap;rounded=0;" vertex="1" parent="1">
          <mxGeometry x="435" y="1100" width="60" height="20" as="geometry" />
        </mxCell>
        <mxCell id="9kW-robpji65stOi1-1t-74" value="&lt;font style=&quot;font-size: 18px&quot;&gt;13:45:00&lt;/font&gt;" style="text;html=1;strokeColor=none;fillColor=none;align=center;verticalAlign=middle;whiteSpace=wrap;rounded=0;" vertex="1" parent="1">
          <mxGeometry x="605" y="1100" width="60" height="20" as="geometry" />
        </mxCell>
        <mxCell id="9kW-robpji65stOi1-1t-75" value="&lt;font style=&quot;font-size: 18px&quot;&gt;13:45:00&lt;/font&gt;" style="text;html=1;strokeColor=none;fillColor=none;align=center;verticalAlign=middle;whiteSpace=wrap;rounded=0;" vertex="1" parent="1">
          <mxGeometry x="1055" y="1100" width="60" height="20" as="geometry" />
        </mxCell>
        <mxCell id="9kW-robpji65stOi1-1t-76" value="&lt;font style=&quot;font-size: 18px&quot;&gt;13:50:00&lt;/font&gt;" style="text;html=1;strokeColor=none;fillColor=none;align=center;verticalAlign=middle;whiteSpace=wrap;rounded=0;" vertex="1" parent="1">
          <mxGeometry x="1225" y="1100" width="60" height="20" as="geometry" />
        </mxCell>
        <mxCell id="9kW-robpji65stOi1-1t-77" value="1" style="whiteSpace=wrap;html=1;aspect=fixed;fillColor=#dae8fc;strokeColor=#6c8ebf;" vertex="1" parent="1">
          <mxGeometry x="645" y="1140" width="30" height="30" as="geometry" />
        </mxCell>
        <mxCell id="9kW-robpji65stOi1-1t-78" value="7" style="whiteSpace=wrap;html=1;aspect=fixed;fillColor=#dae8fc;strokeColor=#6c8ebf;" vertex="1" parent="1">
          <mxGeometry x="685" y="1140" width="30" height="30" as="geometry" />
        </mxCell>
        <mxCell id="9kW-robpji65stOi1-1t-79" value="9" style="whiteSpace=wrap;html=1;aspect=fixed;fillColor=#dae8fc;strokeColor=#6c8ebf;" vertex="1" parent="1">
          <mxGeometry x="765" y="1140" width="30" height="30" as="geometry" />
        </mxCell>
        <mxCell id="9kW-robpji65stOi1-1t-80" value="5" style="whiteSpace=wrap;html=1;aspect=fixed;fillColor=#dae8fc;strokeColor=#6c8ebf;" vertex="1" parent="1">
          <mxGeometry x="645" y="1180" width="30" height="30" as="geometry" />
        </mxCell>
        <mxCell id="9kW-robpji65stOi1-1t-81" value="7" style="whiteSpace=wrap;html=1;aspect=fixed;fillColor=#dae8fc;strokeColor=#6c8ebf;" vertex="1" parent="1">
          <mxGeometry x="725" y="1180" width="30" height="30" as="geometry" />
        </mxCell>
        <mxCell id="9kW-robpji65stOi1-1t-82" value="9" style="whiteSpace=wrap;html=1;aspect=fixed;fillColor=#dae8fc;strokeColor=#6c8ebf;" vertex="1" parent="1">
          <mxGeometry x="765" y="1180" width="30" height="30" as="geometry" />
        </mxCell>
        <mxCell id="9kW-robpji65stOi1-1t-83" value="9" style="whiteSpace=wrap;html=1;aspect=fixed;fillColor=#dae8fc;strokeColor=#6c8ebf;" vertex="1" parent="1">
          <mxGeometry x="645" y="1220" width="30" height="30" as="geometry" />
        </mxCell>
        <mxCell id="9kW-robpji65stOi1-1t-84" value="5" style="whiteSpace=wrap;html=1;aspect=fixed;fillColor=#dae8fc;strokeColor=#6c8ebf;" vertex="1" parent="1">
          <mxGeometry x="685" y="1220" width="30" height="30" as="geometry" />
        </mxCell>
        <mxCell id="9kW-robpji65stOi1-1t-85" value="1" style="whiteSpace=wrap;html=1;aspect=fixed;fillColor=#dae8fc;strokeColor=#6c8ebf;" vertex="1" parent="1">
          <mxGeometry x="725" y="1220" width="30" height="30" as="geometry" />
        </mxCell>
        <mxCell id="9kW-robpji65stOi1-1t-86" value="7" style="whiteSpace=wrap;html=1;aspect=fixed;fillColor=#dae8fc;strokeColor=#6c8ebf;" vertex="1" parent="1">
          <mxGeometry x="765" y="1220" width="30" height="30" as="geometry" />
        </mxCell>
        <mxCell id="9kW-robpji65stOi1-1t-87" value="3" style="whiteSpace=wrap;html=1;aspect=fixed;fillColor=#dae8fc;strokeColor=#6c8ebf;" vertex="1" parent="1">
          <mxGeometry x="685" y="1260" width="30" height="30" as="geometry" />
        </mxCell>
        <mxCell id="9kW-robpji65stOi1-1t-88" value="9" style="whiteSpace=wrap;html=1;aspect=fixed;fillColor=#dae8fc;strokeColor=#6c8ebf;" vertex="1" parent="1">
          <mxGeometry x="765" y="1260" width="30" height="30" as="geometry" />
        </mxCell>
        <mxCell id="9kW-robpji65stOi1-1t-89" value="3" style="whiteSpace=wrap;html=1;aspect=fixed;fillColor=#dae8fc;strokeColor=#6c8ebf;" vertex="1" parent="1">
          <mxGeometry x="725" y="1140" width="30" height="30" as="geometry" />
        </mxCell>
        <mxCell id="9kW-robpji65stOi1-1t-90" value="3" style="whiteSpace=wrap;html=1;aspect=fixed;fillColor=#dae8fc;strokeColor=#6c8ebf;" vertex="1" parent="1">
          <mxGeometry x="685" y="1180" width="30" height="30" as="geometry" />
        </mxCell>
        <mxCell id="9kW-robpji65stOi1-1t-91" value="4" style="whiteSpace=wrap;html=1;aspect=fixed;fillColor=#dae8fc;strokeColor=#6c8ebf;" vertex="1" parent="1">
          <mxGeometry x="645" y="1260" width="30" height="30" as="geometry" />
        </mxCell>
        <mxCell id="9kW-robpji65stOi1-1t-92" value="8" style="whiteSpace=wrap;html=1;aspect=fixed;fillColor=#dae8fc;strokeColor=#6c8ebf;" vertex="1" parent="1">
          <mxGeometry x="725" y="1260" width="30" height="30" as="geometry" />
        </mxCell>
        <mxCell id="9kW-robpji65stOi1-1t-93" value="&lt;span style=&quot;font-size: 48px&quot;&gt;4&lt;/span&gt;" style="whiteSpace=wrap;html=1;aspect=fixed;verticalAlign=middle;fillColor=#f5f5f5;strokeColor=#666666;fontColor=#333333;" vertex="1" parent="1">
          <mxGeometry x="925" y="1140" width="150" height="150" as="geometry" />
        </mxCell>
        <mxCell id="9kW-robpji65stOi1-1t-94" value="&lt;span style=&quot;font-size: 48px&quot;&gt;7&lt;/span&gt;" style="whiteSpace=wrap;html=1;aspect=fixed;verticalAlign=middle;fillColor=#f5f5f5;strokeColor=#666666;fontColor=#333333;" vertex="1" parent="1">
          <mxGeometry x="1095" y="1140" width="150" height="150" as="geometry" />
        </mxCell>
        <mxCell id="9kW-robpji65stOi1-1t-95" value="" style="rhombus;whiteSpace=wrap;html=1;verticalAlign=middle;fillColor=#fff2cc;strokeColor=#d6b656;" vertex="1" parent="1">
          <mxGeometry x="475" y="1260" width="30" height="30" as="geometry" />
        </mxCell>
        <mxCell id="9kW-robpji65stOi1-1t-96" value="" style="rhombus;whiteSpace=wrap;html=1;verticalAlign=middle;fillColor=#fff2cc;strokeColor=#d6b656;direction=south;" vertex="1" parent="1">
          <mxGeometry x="555" y="1260" width="30" height="30" as="geometry" />
        </mxCell>
        <mxCell id="9kW-robpji65stOi1-1t-97" value="" style="rhombus;whiteSpace=wrap;html=1;verticalAlign=middle;fillColor=#fff2cc;strokeColor=#d6b656;" vertex="1" parent="1">
          <mxGeometry x="595" y="1180" width="30" height="30" as="geometry" />
        </mxCell>
        <mxCell id="9kW-robpji65stOi1-1t-98" value="" style="rhombus;whiteSpace=wrap;html=1;verticalAlign=middle;fillColor=#fff2cc;strokeColor=#d6b656;" vertex="1" parent="1">
          <mxGeometry x="515" y="1180" width="30" height="30" as="geometry" />
        </mxCell>
        <mxCell id="9kW-robpji65stOi1-1t-99" value="" style="ellipse;whiteSpace=wrap;html=1;aspect=fixed;verticalAlign=middle;" vertex="1" parent="1">
          <mxGeometry x="475" y="1220" width="30" height="30" as="geometry" />
        </mxCell>
        <mxCell id="9kW-robpji65stOi1-1t-100" value="" style="triangle;whiteSpace=wrap;html=1;verticalAlign=middle;rotation=-90;fillColor=#f8cecc;strokeColor=#b85450;" vertex="1" parent="1">
          <mxGeometry x="515" y="1260" width="30" height="28.67" as="geometry" />
        </mxCell>
        <mxCell id="9kW-robpji65stOi1-1t-101" value="" style="ellipse;whiteSpace=wrap;html=1;aspect=fixed;verticalAlign=middle;" vertex="1" parent="1">
          <mxGeometry x="555" y="1220" width="30" height="30" as="geometry" />
        </mxCell>
        <mxCell id="9kW-robpji65stOi1-1t-102" value="" style="ellipse;whiteSpace=wrap;html=1;aspect=fixed;verticalAlign=middle;" vertex="1" parent="1">
          <mxGeometry x="555" y="1140" width="30" height="30" as="geometry" />
        </mxCell>
        <mxCell id="9kW-robpji65stOi1-1t-103" value="" style="triangle;whiteSpace=wrap;html=1;verticalAlign=middle;rotation=-90;fillColor=#f8cecc;strokeColor=#b85450;" vertex="1" parent="1">
          <mxGeometry x="595" y="1220.6599999999999" width="30" height="28.67" as="geometry" />
        </mxCell>
        <mxCell id="9kW-robpji65stOi1-1t-104" value="" style="triangle;whiteSpace=wrap;html=1;verticalAlign=middle;rotation=-90;fillColor=#f8cecc;strokeColor=#b85450;" vertex="1" parent="1">
          <mxGeometry x="515" y="1141.33" width="30" height="28.67" as="geometry" />
        </mxCell>
        <mxCell id="9kW-robpji65stOi1-1t-105" value="" style="group" vertex="1" connectable="0" parent="1">
          <mxGeometry x="2250" y="410" width="150" height="150" as="geometry" />
        </mxCell>
        <mxCell id="9kW-robpji65stOi1-1t-106" value="1" style="whiteSpace=wrap;html=1;aspect=fixed;" vertex="1" parent="9kW-robpji65stOi1-1t-105">
          <mxGeometry width="30" height="30" as="geometry" />
        </mxCell>
        <mxCell id="9kW-robpji65stOi1-1t-107" value="1" style="whiteSpace=wrap;html=1;aspect=fixed;" vertex="1" parent="9kW-robpji65stOi1-1t-105">
          <mxGeometry x="40" width="30" height="30" as="geometry" />
        </mxCell>
        <mxCell id="9kW-robpji65stOi1-1t-108" value="1" style="whiteSpace=wrap;html=1;aspect=fixed;" vertex="1" parent="9kW-robpji65stOi1-1t-105">
          <mxGeometry x="80" width="30" height="30" as="geometry" />
        </mxCell>
        <mxCell id="9kW-robpji65stOi1-1t-109" value="1" style="whiteSpace=wrap;html=1;aspect=fixed;" vertex="1" parent="9kW-robpji65stOi1-1t-105">
          <mxGeometry x="120" width="30" height="30" as="geometry" />
        </mxCell>
        <mxCell id="9kW-robpji65stOi1-1t-110" value="1" style="whiteSpace=wrap;html=1;aspect=fixed;" vertex="1" parent="9kW-robpji65stOi1-1t-105">
          <mxGeometry y="40" width="30" height="30" as="geometry" />
        </mxCell>
        <mxCell id="9kW-robpji65stOi1-1t-111" value="1" style="whiteSpace=wrap;html=1;aspect=fixed;" vertex="1" parent="9kW-robpji65stOi1-1t-105">
          <mxGeometry x="40" y="40" width="30" height="30" as="geometry" />
        </mxCell>
        <mxCell id="9kW-robpji65stOi1-1t-112" value="1" style="whiteSpace=wrap;html=1;aspect=fixed;" vertex="1" parent="9kW-robpji65stOi1-1t-105">
          <mxGeometry x="80" y="40" width="30" height="30" as="geometry" />
        </mxCell>
        <mxCell id="9kW-robpji65stOi1-1t-113" value="1" style="whiteSpace=wrap;html=1;aspect=fixed;" vertex="1" parent="9kW-robpji65stOi1-1t-105">
          <mxGeometry x="120" y="40" width="30" height="30" as="geometry" />
        </mxCell>
        <mxCell id="9kW-robpji65stOi1-1t-114" value="1" style="whiteSpace=wrap;html=1;aspect=fixed;" vertex="1" parent="9kW-robpji65stOi1-1t-105">
          <mxGeometry y="80" width="30" height="30" as="geometry" />
        </mxCell>
        <mxCell id="9kW-robpji65stOi1-1t-115" value="1" style="whiteSpace=wrap;html=1;aspect=fixed;" vertex="1" parent="9kW-robpji65stOi1-1t-105">
          <mxGeometry x="40" y="80" width="30" height="30" as="geometry" />
        </mxCell>
        <mxCell id="9kW-robpji65stOi1-1t-116" value="1" style="whiteSpace=wrap;html=1;aspect=fixed;" vertex="1" parent="9kW-robpji65stOi1-1t-105">
          <mxGeometry x="80" y="80" width="30" height="30" as="geometry" />
        </mxCell>
        <mxCell id="9kW-robpji65stOi1-1t-117" value="1" style="whiteSpace=wrap;html=1;aspect=fixed;" vertex="1" parent="9kW-robpji65stOi1-1t-105">
          <mxGeometry x="120" y="80" width="30" height="30" as="geometry" />
        </mxCell>
        <mxCell id="9kW-robpji65stOi1-1t-118" value="1" style="whiteSpace=wrap;html=1;aspect=fixed;" vertex="1" parent="9kW-robpji65stOi1-1t-105">
          <mxGeometry y="120" width="30" height="30" as="geometry" />
        </mxCell>
        <mxCell id="9kW-robpji65stOi1-1t-119" value="1" style="whiteSpace=wrap;html=1;aspect=fixed;" vertex="1" parent="9kW-robpji65stOi1-1t-105">
          <mxGeometry x="40" y="120" width="30" height="30" as="geometry" />
        </mxCell>
        <mxCell id="9kW-robpji65stOi1-1t-120" value="1" style="whiteSpace=wrap;html=1;aspect=fixed;" vertex="1" parent="9kW-robpji65stOi1-1t-105">
          <mxGeometry x="80" y="120" width="30" height="30" as="geometry" />
        </mxCell>
        <mxCell id="9kW-robpji65stOi1-1t-121" value="1" style="whiteSpace=wrap;html=1;aspect=fixed;" vertex="1" parent="9kW-robpji65stOi1-1t-105">
          <mxGeometry x="120" y="120" width="30" height="30" as="geometry" />
        </mxCell>
        <mxCell id="9kW-robpji65stOi1-1t-122" value="" style="whiteSpace=wrap;html=1;aspect=fixed;verticalAlign=top;" vertex="1" parent="1">
          <mxGeometry x="2430" y="410" width="150" height="150" as="geometry" />
        </mxCell>
        <mxCell id="9kW-robpji65stOi1-1t-123" value="" style="endArrow=none;html=1;verticalAlign=top;horizontal=1;align=center;strokeWidth=2;" edge="1" parent="1">
          <mxGeometry width="50" height="50" relative="1" as="geometry">
            <mxPoint x="2030" y="120" as="sourcePoint" />
            <mxPoint x="3530" y="120" as="targetPoint" />
          </mxGeometry>
        </mxCell>
        <mxCell id="9kW-robpji65stOi1-1t-124" value="" style="endArrow=none;dashed=1;html=1;dashPattern=1 3;strokeWidth=2;align=center;verticalAlign=top;" edge="1" parent="1">
          <mxGeometry width="50" height="50" relative="1" as="geometry">
            <mxPoint x="2050" y="310" as="sourcePoint" />
            <mxPoint x="2050" y="120" as="targetPoint" />
          </mxGeometry>
        </mxCell>
        <mxCell id="9kW-robpji65stOi1-1t-125" value="" style="endArrow=none;dashed=1;html=1;dashPattern=1 3;strokeWidth=2;align=center;verticalAlign=top;" edge="1" parent="1">
          <mxGeometry width="50" height="50" relative="1" as="geometry">
            <mxPoint x="2220" y="310" as="sourcePoint" />
            <mxPoint x="2220" y="120" as="targetPoint" />
          </mxGeometry>
        </mxCell>
        <mxCell id="9kW-robpji65stOi1-1t-126" value="" style="endArrow=none;dashed=1;html=1;dashPattern=1 3;strokeWidth=2;align=center;verticalAlign=top;" edge="1" parent="1">
          <mxGeometry width="50" height="50" relative="1" as="geometry">
            <mxPoint x="2390" y="310" as="sourcePoint" />
            <mxPoint x="2390" y="120" as="targetPoint" />
          </mxGeometry>
        </mxCell>
        <mxCell id="9kW-robpji65stOi1-1t-127" value="" style="endArrow=none;dashed=1;html=1;dashPattern=1 3;strokeWidth=2;align=center;verticalAlign=top;" edge="1" parent="1">
          <mxGeometry width="50" height="50" relative="1" as="geometry">
            <mxPoint x="2560" y="310" as="sourcePoint" />
            <mxPoint x="2560" y="120" as="targetPoint" />
          </mxGeometry>
        </mxCell>
        <mxCell id="9kW-robpji65stOi1-1t-128" value="&lt;font style=&quot;font-size: 18px&quot;&gt;&lt;b&gt;Countor&lt;/b&gt;&lt;/font&gt;" style="text;html=1;strokeColor=none;fillColor=none;align=center;verticalAlign=middle;whiteSpace=wrap;rounded=0;" vertex="1" parent="1">
          <mxGeometry x="1960" y="210" width="70" height="20" as="geometry" />
        </mxCell>
        <mxCell id="9kW-robpji65stOi1-1t-129" value="&lt;i&gt;sample_rate = 1&lt;/i&gt;" style="text;html=1;strokeColor=none;fillColor=none;align=center;verticalAlign=middle;whiteSpace=wrap;rounded=0;" vertex="1" parent="1">
          <mxGeometry x="2090" y="126" width="90" height="20" as="geometry" />
        </mxCell>
        <mxCell id="9kW-robpji65stOi1-1t-130" value="&lt;i&gt;sample_rate = 0.5&lt;/i&gt;" style="text;html=1;strokeColor=none;fillColor=none;align=center;verticalAlign=middle;whiteSpace=wrap;rounded=0;" vertex="1" parent="1">
          <mxGeometry x="2255" y="126" width="100" height="20" as="geometry" />
        </mxCell>
        <mxCell id="9kW-robpji65stOi1-1t-131" value="&lt;i&gt;sample_rate = 0.1&lt;/i&gt;" style="text;html=1;strokeColor=none;fillColor=none;align=center;verticalAlign=middle;whiteSpace=wrap;rounded=0;" vertex="1" parent="1">
          <mxGeometry x="2425" y="126" width="100" height="20" as="geometry" />
        </mxCell>
        <mxCell id="9kW-robpji65stOi1-1t-132" value="&lt;i&gt;sample_rate = 1&lt;/i&gt;" style="text;html=1;strokeColor=none;fillColor=none;align=center;verticalAlign=middle;whiteSpace=wrap;rounded=0;" vertex="1" parent="1">
          <mxGeometry x="2595" y="126" width="100" height="20" as="geometry" />
        </mxCell>
        <mxCell id="9kW-robpji65stOi1-1t-133" value="6" style="whiteSpace=wrap;html=1;aspect=fixed;fillColor=#dae8fc;strokeColor=#6c8ebf;" vertex="1" parent="1">
          <mxGeometry x="2570" y="150" width="30" height="30" as="geometry" />
        </mxCell>
        <mxCell id="9kW-robpji65stOi1-1t-134" value="5" style="whiteSpace=wrap;html=1;aspect=fixed;fillColor=#dae8fc;strokeColor=#6c8ebf;" vertex="1" parent="1">
          <mxGeometry x="2650" y="150" width="30" height="30" as="geometry" />
        </mxCell>
        <mxCell id="9kW-robpji65stOi1-1t-135" value="1" style="whiteSpace=wrap;html=1;aspect=fixed;fillColor=#dae8fc;strokeColor=#6c8ebf;" vertex="1" parent="1">
          <mxGeometry x="2690" y="150" width="30" height="30" as="geometry" />
        </mxCell>
        <mxCell id="9kW-robpji65stOi1-1t-136" value="3" style="whiteSpace=wrap;html=1;aspect=fixed;fillColor=#dae8fc;strokeColor=#6c8ebf;" vertex="1" parent="1">
          <mxGeometry x="2610" y="190" width="30" height="30" as="geometry" />
        </mxCell>
        <mxCell id="9kW-robpji65stOi1-1t-137" value="9" style="whiteSpace=wrap;html=1;aspect=fixed;fillColor=#dae8fc;strokeColor=#6c8ebf;" vertex="1" parent="1">
          <mxGeometry x="2690" y="190" width="30" height="30" as="geometry" />
        </mxCell>
        <mxCell id="9kW-robpji65stOi1-1t-138" value="1" style="whiteSpace=wrap;html=1;aspect=fixed;fillColor=#dae8fc;strokeColor=#6c8ebf;" vertex="1" parent="1">
          <mxGeometry x="2570" y="230" width="30" height="30" as="geometry" />
        </mxCell>
        <mxCell id="9kW-robpji65stOi1-1t-139" value="12" style="whiteSpace=wrap;html=1;aspect=fixed;fillColor=#dae8fc;strokeColor=#6c8ebf;" vertex="1" parent="1">
          <mxGeometry x="2650" y="230" width="30" height="30" as="geometry" />
        </mxCell>
        <mxCell id="9kW-robpji65stOi1-1t-140" value="8" style="whiteSpace=wrap;html=1;aspect=fixed;fillColor=#dae8fc;strokeColor=#6c8ebf;" vertex="1" parent="1">
          <mxGeometry x="2570" y="270" width="30" height="30" as="geometry" />
        </mxCell>
        <mxCell id="9kW-robpji65stOi1-1t-141" value="1" style="whiteSpace=wrap;html=1;aspect=fixed;fillColor=#dae8fc;strokeColor=#6c8ebf;" vertex="1" parent="1">
          <mxGeometry x="2610" y="270" width="30" height="30" as="geometry" />
        </mxCell>
        <mxCell id="9kW-robpji65stOi1-1t-142" value="1" style="whiteSpace=wrap;html=1;aspect=fixed;fillColor=#dae8fc;strokeColor=#6c8ebf;" vertex="1" parent="1">
          <mxGeometry x="2690" y="270" width="30" height="30" as="geometry" />
        </mxCell>
        <mxCell id="9kW-robpji65stOi1-1t-143" value="1" style="whiteSpace=wrap;html=1;aspect=fixed;fillColor=#dae8fc;strokeColor=#6c8ebf;" vertex="1" parent="1">
          <mxGeometry x="2400" y="150" width="30" height="30" as="geometry" />
        </mxCell>
        <mxCell id="9kW-robpji65stOi1-1t-144" value="1" style="whiteSpace=wrap;html=1;aspect=fixed;fillColor=#dae8fc;strokeColor=#6c8ebf;" vertex="1" parent="1">
          <mxGeometry x="2440" y="150" width="30" height="30" as="geometry" />
        </mxCell>
        <mxCell id="9kW-robpji65stOi1-1t-145" value="1" style="whiteSpace=wrap;html=1;aspect=fixed;fillColor=#dae8fc;strokeColor=#6c8ebf;" vertex="1" parent="1">
          <mxGeometry x="2480" y="150" width="30" height="30" as="geometry" />
        </mxCell>
        <mxCell id="9kW-robpji65stOi1-1t-146" value="1" style="whiteSpace=wrap;html=1;aspect=fixed;fillColor=#dae8fc;strokeColor=#6c8ebf;" vertex="1" parent="1">
          <mxGeometry x="2400" y="190" width="30" height="30" as="geometry" />
        </mxCell>
        <mxCell id="9kW-robpji65stOi1-1t-147" value="1" style="whiteSpace=wrap;html=1;aspect=fixed;fillColor=#dae8fc;strokeColor=#6c8ebf;" vertex="1" parent="1">
          <mxGeometry x="2440" y="190" width="30" height="30" as="geometry" />
        </mxCell>
        <mxCell id="9kW-robpji65stOi1-1t-148" value="1" style="whiteSpace=wrap;html=1;aspect=fixed;fillColor=#dae8fc;strokeColor=#6c8ebf;" vertex="1" parent="1">
          <mxGeometry x="2480" y="190" width="30" height="30" as="geometry" />
        </mxCell>
        <mxCell id="9kW-robpji65stOi1-1t-149" value="1" style="whiteSpace=wrap;html=1;aspect=fixed;fillColor=#dae8fc;strokeColor=#6c8ebf;" vertex="1" parent="1">
          <mxGeometry x="2520" y="190" width="30" height="30" as="geometry" />
        </mxCell>
        <mxCell id="9kW-robpji65stOi1-1t-150" value="1" style="whiteSpace=wrap;html=1;aspect=fixed;fillColor=#dae8fc;strokeColor=#6c8ebf;" vertex="1" parent="1">
          <mxGeometry x="2440" y="230" width="30" height="30" as="geometry" />
        </mxCell>
        <mxCell id="9kW-robpji65stOi1-1t-151" value="1" style="whiteSpace=wrap;html=1;aspect=fixed;fillColor=#dae8fc;strokeColor=#6c8ebf;" vertex="1" parent="1">
          <mxGeometry x="2480" y="230" width="30" height="30" as="geometry" />
        </mxCell>
        <mxCell id="9kW-robpji65stOi1-1t-152" value="1" style="whiteSpace=wrap;html=1;aspect=fixed;fillColor=#dae8fc;strokeColor=#6c8ebf;" vertex="1" parent="1">
          <mxGeometry x="2520" y="230" width="30" height="30" as="geometry" />
        </mxCell>
        <mxCell id="9kW-robpji65stOi1-1t-153" value="1" style="whiteSpace=wrap;html=1;aspect=fixed;fillColor=#dae8fc;strokeColor=#6c8ebf;" vertex="1" parent="1">
          <mxGeometry x="2400" y="270" width="30" height="30" as="geometry" />
        </mxCell>
        <mxCell id="9kW-robpji65stOi1-1t-154" value="1" style="whiteSpace=wrap;html=1;aspect=fixed;fillColor=#dae8fc;strokeColor=#6c8ebf;" vertex="1" parent="1">
          <mxGeometry x="2440" y="270" width="30" height="30" as="geometry" />
        </mxCell>
        <mxCell id="9kW-robpji65stOi1-1t-155" value="1" style="whiteSpace=wrap;html=1;aspect=fixed;fillColor=#dae8fc;strokeColor=#6c8ebf;" vertex="1" parent="1">
          <mxGeometry x="2480" y="270" width="30" height="30" as="geometry" />
        </mxCell>
        <mxCell id="9kW-robpji65stOi1-1t-156" value="1" style="whiteSpace=wrap;html=1;aspect=fixed;fillColor=#dae8fc;strokeColor=#6c8ebf;" vertex="1" parent="1">
          <mxGeometry x="2520" y="270" width="30" height="30" as="geometry" />
        </mxCell>
        <mxCell id="9kW-robpji65stOi1-1t-157" value="" style="endArrow=none;html=1;verticalAlign=top;horizontal=1;align=center;strokeWidth=2;" edge="1" parent="1">
          <mxGeometry width="50" height="50" relative="1" as="geometry">
            <mxPoint x="2030" y="310" as="sourcePoint" />
            <mxPoint x="3530" y="310" as="targetPoint" />
          </mxGeometry>
        </mxCell>
        <mxCell id="9kW-robpji65stOi1-1t-158" value="&lt;font style=&quot;font-size: 24px&quot;&gt;&lt;b&gt;StatsD&lt;/b&gt;&lt;/font&gt;" style="rounded=1;whiteSpace=wrap;html=1;" vertex="1" parent="1">
          <mxGeometry x="2730" y="90" width="110" height="250" as="geometry" />
        </mxCell>
        <mxCell id="9kW-robpji65stOi1-1t-159" value="1" style="whiteSpace=wrap;html=1;aspect=fixed;fillColor=#dae8fc;strokeColor=#6c8ebf;" vertex="1" parent="1">
          <mxGeometry x="2270" y="150" width="30" height="30" as="geometry" />
        </mxCell>
        <mxCell id="9kW-robpji65stOi1-1t-160" value="1" style="whiteSpace=wrap;html=1;aspect=fixed;fillColor=#dae8fc;strokeColor=#6c8ebf;" vertex="1" parent="1">
          <mxGeometry x="2310" y="150" width="30" height="30" as="geometry" />
        </mxCell>
        <mxCell id="9kW-robpji65stOi1-1t-161" value="1" style="whiteSpace=wrap;html=1;aspect=fixed;fillColor=#dae8fc;strokeColor=#6c8ebf;" vertex="1" parent="1">
          <mxGeometry x="2350" y="150" width="30" height="30" as="geometry" />
        </mxCell>
        <mxCell id="9kW-robpji65stOi1-1t-162" value="1" style="whiteSpace=wrap;html=1;aspect=fixed;fillColor=#dae8fc;strokeColor=#6c8ebf;" vertex="1" parent="1">
          <mxGeometry x="2230" y="190" width="30" height="30" as="geometry" />
        </mxCell>
        <mxCell id="9kW-robpji65stOi1-1t-163" value="1" style="whiteSpace=wrap;html=1;aspect=fixed;fillColor=#dae8fc;strokeColor=#6c8ebf;" vertex="1" parent="1">
          <mxGeometry x="2270" y="190" width="30" height="30" as="geometry" />
        </mxCell>
        <mxCell id="9kW-robpji65stOi1-1t-164" value="1" style="whiteSpace=wrap;html=1;aspect=fixed;fillColor=#dae8fc;strokeColor=#6c8ebf;" vertex="1" parent="1">
          <mxGeometry x="2350" y="190" width="30" height="30" as="geometry" />
        </mxCell>
        <mxCell id="9kW-robpji65stOi1-1t-165" value="1" style="whiteSpace=wrap;html=1;aspect=fixed;fillColor=#dae8fc;strokeColor=#6c8ebf;" vertex="1" parent="1">
          <mxGeometry x="2270" y="230" width="30" height="30" as="geometry" />
        </mxCell>
        <mxCell id="9kW-robpji65stOi1-1t-166" value="1" style="whiteSpace=wrap;html=1;aspect=fixed;fillColor=#dae8fc;strokeColor=#6c8ebf;" vertex="1" parent="1">
          <mxGeometry x="2310" y="230" width="30" height="30" as="geometry" />
        </mxCell>
        <mxCell id="9kW-robpji65stOi1-1t-167" value="1" style="whiteSpace=wrap;html=1;aspect=fixed;fillColor=#dae8fc;strokeColor=#6c8ebf;" vertex="1" parent="1">
          <mxGeometry x="2350" y="230" width="30" height="30" as="geometry" />
        </mxCell>
        <mxCell id="9kW-robpji65stOi1-1t-168" value="1" style="whiteSpace=wrap;html=1;aspect=fixed;fillColor=#dae8fc;strokeColor=#6c8ebf;" vertex="1" parent="1">
          <mxGeometry x="2230" y="270" width="30" height="30" as="geometry" />
        </mxCell>
        <mxCell id="9kW-robpji65stOi1-1t-169" value="1" style="whiteSpace=wrap;html=1;aspect=fixed;fillColor=#dae8fc;strokeColor=#6c8ebf;" vertex="1" parent="1">
          <mxGeometry x="2270" y="270" width="30" height="30" as="geometry" />
        </mxCell>
        <mxCell id="9kW-robpji65stOi1-1t-170" value="1" style="whiteSpace=wrap;html=1;aspect=fixed;fillColor=#dae8fc;strokeColor=#6c8ebf;" vertex="1" parent="1">
          <mxGeometry x="2350" y="270" width="30" height="30" as="geometry" />
        </mxCell>
        <mxCell id="9kW-robpji65stOi1-1t-171" value="1" style="whiteSpace=wrap;html=1;aspect=fixed;fillColor=#dae8fc;strokeColor=#6c8ebf;" vertex="1" parent="1">
          <mxGeometry x="2060" y="150" width="30" height="30" as="geometry" />
        </mxCell>
        <mxCell id="9kW-robpji65stOi1-1t-172" value="1" style="whiteSpace=wrap;html=1;aspect=fixed;fillColor=#dae8fc;strokeColor=#6c8ebf;" vertex="1" parent="1">
          <mxGeometry x="2100" y="150" width="30" height="30" as="geometry" />
        </mxCell>
        <mxCell id="9kW-robpji65stOi1-1t-173" value="1" style="whiteSpace=wrap;html=1;aspect=fixed;fillColor=#dae8fc;strokeColor=#6c8ebf;" vertex="1" parent="1">
          <mxGeometry x="2180" y="150" width="30" height="30" as="geometry" />
        </mxCell>
        <mxCell id="9kW-robpji65stOi1-1t-174" value="1" style="whiteSpace=wrap;html=1;aspect=fixed;fillColor=#dae8fc;strokeColor=#6c8ebf;" vertex="1" parent="1">
          <mxGeometry x="2060" y="190" width="30" height="30" as="geometry" />
        </mxCell>
        <mxCell id="9kW-robpji65stOi1-1t-175" value="1" style="whiteSpace=wrap;html=1;aspect=fixed;fillColor=#dae8fc;strokeColor=#6c8ebf;" vertex="1" parent="1">
          <mxGeometry x="2140" y="190" width="30" height="30" as="geometry" />
        </mxCell>
        <mxCell id="9kW-robpji65stOi1-1t-176" value="1" style="whiteSpace=wrap;html=1;aspect=fixed;fillColor=#dae8fc;strokeColor=#6c8ebf;" vertex="1" parent="1">
          <mxGeometry x="2180" y="190" width="30" height="30" as="geometry" />
        </mxCell>
        <mxCell id="9kW-robpji65stOi1-1t-177" value="1" style="whiteSpace=wrap;html=1;aspect=fixed;fillColor=#dae8fc;strokeColor=#6c8ebf;" vertex="1" parent="1">
          <mxGeometry x="2060" y="230" width="30" height="30" as="geometry" />
        </mxCell>
        <mxCell id="9kW-robpji65stOi1-1t-178" value="1" style="whiteSpace=wrap;html=1;aspect=fixed;fillColor=#dae8fc;strokeColor=#6c8ebf;" vertex="1" parent="1">
          <mxGeometry x="2100" y="230" width="30" height="30" as="geometry" />
        </mxCell>
        <mxCell id="9kW-robpji65stOi1-1t-179" value="1" style="whiteSpace=wrap;html=1;aspect=fixed;fillColor=#dae8fc;strokeColor=#6c8ebf;" vertex="1" parent="1">
          <mxGeometry x="2140" y="230" width="30" height="30" as="geometry" />
        </mxCell>
        <mxCell id="9kW-robpji65stOi1-1t-180" value="1" style="whiteSpace=wrap;html=1;aspect=fixed;fillColor=#dae8fc;strokeColor=#6c8ebf;" vertex="1" parent="1">
          <mxGeometry x="2180" y="230" width="30" height="30" as="geometry" />
        </mxCell>
        <mxCell id="9kW-robpji65stOi1-1t-181" value="1" style="whiteSpace=wrap;html=1;aspect=fixed;fillColor=#dae8fc;strokeColor=#6c8ebf;" vertex="1" parent="1">
          <mxGeometry x="2100" y="270" width="30" height="30" as="geometry" />
        </mxCell>
        <mxCell id="9kW-robpji65stOi1-1t-182" value="1" style="whiteSpace=wrap;html=1;aspect=fixed;fillColor=#dae8fc;strokeColor=#6c8ebf;" vertex="1" parent="1">
          <mxGeometry x="2180" y="270" width="30" height="30" as="geometry" />
        </mxCell>
        <mxCell id="9kW-robpji65stOi1-1t-183" value="&lt;font style=&quot;font-size: 48px&quot;&gt;12&lt;/font&gt;&lt;br&gt;&lt;span style=&quot;font-size: 24px&quot;&gt;=12/1&lt;/span&gt;" style="whiteSpace=wrap;html=1;aspect=fixed;verticalAlign=middle;fillColor=#f5f5f5;strokeColor=#666666;fontColor=#333333;" vertex="1" parent="1">
          <mxGeometry x="2850" y="150" width="150" height="150" as="geometry" />
        </mxCell>
        <mxCell id="9kW-robpji65stOi1-1t-184" value="" style="endArrow=none;dashed=1;html=1;dashPattern=1 3;strokeWidth=2;align=center;verticalAlign=top;" edge="1" parent="1">
          <mxGeometry width="50" height="50" relative="1" as="geometry">
            <mxPoint x="3010" y="310" as="sourcePoint" />
            <mxPoint x="3010" y="120" as="targetPoint" />
          </mxGeometry>
        </mxCell>
        <mxCell id="9kW-robpji65stOi1-1t-185" value="&lt;font&gt;&lt;font style=&quot;font-size: 48px&quot;&gt;24&lt;/font&gt;&lt;br&gt;&lt;span style=&quot;font-size: 24px&quot;&gt;=12/0.5&lt;/span&gt;&lt;br&gt;&lt;/font&gt;" style="whiteSpace=wrap;html=1;aspect=fixed;verticalAlign=middle;fillColor=#f5f5f5;strokeColor=#666666;fontColor=#333333;" vertex="1" parent="1">
          <mxGeometry x="3020" y="150" width="150" height="150" as="geometry" />
        </mxCell>
        <mxCell id="9kW-robpji65stOi1-1t-186" value="" style="endArrow=none;dashed=1;html=1;dashPattern=1 3;strokeWidth=2;align=center;verticalAlign=top;" edge="1" parent="1">
          <mxGeometry width="50" height="50" relative="1" as="geometry">
            <mxPoint x="3180" y="310" as="sourcePoint" />
            <mxPoint x="3180" y="120" as="targetPoint" />
          </mxGeometry>
        </mxCell>
        <mxCell id="9kW-robpji65stOi1-1t-187" value="&lt;font style=&quot;font-size: 48px&quot;&gt;140&lt;/font&gt;&lt;br&gt;&lt;span style=&quot;font-size: 24px&quot;&gt;=14/0.1&lt;/span&gt;" style="whiteSpace=wrap;html=1;aspect=fixed;verticalAlign=middle;fillColor=#f5f5f5;strokeColor=#666666;fontColor=#333333;" vertex="1" parent="1">
          <mxGeometry x="3190" y="150" width="150" height="150" as="geometry" />
        </mxCell>
        <mxCell id="9kW-robpji65stOi1-1t-188" value="" style="endArrow=none;dashed=1;html=1;dashPattern=1 3;strokeWidth=2;align=center;verticalAlign=top;" edge="1" parent="1">
          <mxGeometry width="50" height="50" relative="1" as="geometry">
            <mxPoint x="3350" y="310" as="sourcePoint" />
            <mxPoint x="3350" y="120" as="targetPoint" />
          </mxGeometry>
        </mxCell>
        <mxCell id="9kW-robpji65stOi1-1t-189" value="&lt;font style=&quot;font-size: 48px&quot;&gt;47&lt;/font&gt;&lt;br&gt;&lt;span style=&quot;font-size: 24px&quot;&gt;=47/1&lt;/span&gt;" style="whiteSpace=wrap;html=1;aspect=fixed;verticalAlign=middle;fillColor=#f5f5f5;strokeColor=#666666;fontColor=#333333;" vertex="1" parent="1">
          <mxGeometry x="3360" y="150" width="150" height="150" as="geometry" />
        </mxCell>
        <mxCell id="9kW-robpji65stOi1-1t-190" value="&lt;i&gt;sample_rate = 1&lt;/i&gt;" style="text;html=1;strokeColor=none;fillColor=none;align=center;verticalAlign=middle;whiteSpace=wrap;rounded=0;" vertex="1" parent="1">
          <mxGeometry x="2880" y="126" width="90" height="20" as="geometry" />
        </mxCell>
        <mxCell id="9kW-robpji65stOi1-1t-191" value="&lt;i&gt;sample_rate = 0.5&lt;/i&gt;" style="text;html=1;strokeColor=none;fillColor=none;align=center;verticalAlign=middle;whiteSpace=wrap;rounded=0;" vertex="1" parent="1">
          <mxGeometry x="3045" y="126" width="100" height="20" as="geometry" />
        </mxCell>
        <mxCell id="9kW-robpji65stOi1-1t-192" value="&lt;i&gt;sample_rate = 0.1&lt;/i&gt;" style="text;html=1;strokeColor=none;fillColor=none;align=center;verticalAlign=middle;whiteSpace=wrap;rounded=0;" vertex="1" parent="1">
          <mxGeometry x="3215" y="126" width="100" height="20" as="geometry" />
        </mxCell>
        <mxCell id="9kW-robpji65stOi1-1t-193" value="&lt;i&gt;sample_rate = 1&lt;/i&gt;" style="text;html=1;strokeColor=none;fillColor=none;align=center;verticalAlign=middle;whiteSpace=wrap;rounded=0;" vertex="1" parent="1">
          <mxGeometry x="3385" y="126" width="100" height="20" as="geometry" />
        </mxCell>
        <mxCell id="9kW-robpji65stOi1-1t-194" value="1" style="whiteSpace=wrap;html=1;aspect=fixed;fillColor=#dae8fc;strokeColor=#6c8ebf;" vertex="1" parent="1">
          <mxGeometry x="2140" y="150" width="30" height="30" as="geometry" />
        </mxCell>
        <mxCell id="9kW-robpji65stOi1-1t-195" value="1" style="whiteSpace=wrap;html=1;aspect=fixed;fillColor=#dae8fc;strokeColor=#6c8ebf;" vertex="1" parent="1">
          <mxGeometry x="2100" y="190" width="30" height="30" as="geometry" />
        </mxCell>
        <mxCell id="9kW-robpji65stOi1-1t-196" value="1" style="whiteSpace=wrap;html=1;aspect=fixed;fillColor=#dae8fc;strokeColor=#6c8ebf;" vertex="1" parent="1">
          <mxGeometry x="2060" y="270" width="30" height="30" as="geometry" />
        </mxCell>
        <mxCell id="9kW-robpji65stOi1-1t-197" value="1" style="whiteSpace=wrap;html=1;aspect=fixed;fillColor=#dae8fc;strokeColor=#6c8ebf;" vertex="1" parent="1">
          <mxGeometry x="2140" y="270" width="30" height="30" as="geometry" />
        </mxCell>
        <mxCell id="9kW-robpji65stOi1-1t-198" value="1" style="whiteSpace=wrap;html=1;aspect=fixed;fillColor=#dae8fc;strokeColor=#6c8ebf;" vertex="1" parent="1">
          <mxGeometry x="2230" y="150" width="30" height="30" as="geometry" />
        </mxCell>
        <mxCell id="9kW-robpji65stOi1-1t-199" value="1" style="whiteSpace=wrap;html=1;aspect=fixed;fillColor=#dae8fc;strokeColor=#6c8ebf;" vertex="1" parent="1">
          <mxGeometry x="2230" y="230" width="30" height="30" as="geometry" />
        </mxCell>
        <mxCell id="9kW-robpji65stOi1-1t-200" value="1" style="whiteSpace=wrap;html=1;aspect=fixed;fillColor=#dae8fc;strokeColor=#6c8ebf;" vertex="1" parent="1">
          <mxGeometry x="2310" y="190" width="30" height="30" as="geometry" />
        </mxCell>
        <mxCell id="9kW-robpji65stOi1-1t-201" value="1" style="whiteSpace=wrap;html=1;aspect=fixed;fillColor=#dae8fc;strokeColor=#6c8ebf;" vertex="1" parent="1">
          <mxGeometry x="2310" y="270" width="30" height="30" as="geometry" />
        </mxCell>
        <mxCell id="9kW-robpji65stOi1-1t-202" value="1" style="whiteSpace=wrap;html=1;aspect=fixed;fillColor=#dae8fc;strokeColor=#6c8ebf;" vertex="1" parent="1">
          <mxGeometry x="2400" y="230" width="30" height="30" as="geometry" />
        </mxCell>
        <mxCell id="9kW-robpji65stOi1-1t-203" value="1" style="whiteSpace=wrap;html=1;aspect=fixed;fillColor=#dae8fc;strokeColor=#6c8ebf;" vertex="1" parent="1">
          <mxGeometry x="2520" y="150" width="30" height="30" as="geometry" />
        </mxCell>
        <mxCell id="9kW-robpji65stOi1-1t-204" value="1" style="whiteSpace=wrap;html=1;aspect=fixed;fillColor=#dae8fc;strokeColor=#6c8ebf;" vertex="1" parent="1">
          <mxGeometry x="2570" y="190" width="30" height="30" as="geometry" />
        </mxCell>
        <mxCell id="9kW-robpji65stOi1-1t-205" value="1" style="whiteSpace=wrap;html=1;aspect=fixed;fillColor=#dae8fc;strokeColor=#6c8ebf;" vertex="1" parent="1">
          <mxGeometry x="2610" y="150" width="30" height="30" as="geometry" />
        </mxCell>
        <mxCell id="9kW-robpji65stOi1-1t-206" value="1" style="whiteSpace=wrap;html=1;aspect=fixed;fillColor=#dae8fc;strokeColor=#6c8ebf;" vertex="1" parent="1">
          <mxGeometry x="2610" y="230" width="30" height="30" as="geometry" />
        </mxCell>
        <mxCell id="9kW-robpji65stOi1-1t-207" value="1" style="whiteSpace=wrap;html=1;aspect=fixed;fillColor=#dae8fc;strokeColor=#6c8ebf;" vertex="1" parent="1">
          <mxGeometry x="2650" y="190" width="30" height="30" as="geometry" />
        </mxCell>
        <mxCell id="9kW-robpji65stOi1-1t-208" value="1" style="whiteSpace=wrap;html=1;aspect=fixed;fillColor=#dae8fc;strokeColor=#6c8ebf;" vertex="1" parent="1">
          <mxGeometry x="2650" y="270" width="30" height="30" as="geometry" />
        </mxCell>
        <mxCell id="9kW-robpji65stOi1-1t-209" value="1" style="whiteSpace=wrap;html=1;aspect=fixed;fillColor=#dae8fc;strokeColor=#6c8ebf;" vertex="1" parent="1">
          <mxGeometry x="2690" y="230" width="30" height="30" as="geometry" />
        </mxCell>
        <mxCell id="9kW-robpji65stOi1-1t-210" value="&lt;font style=&quot;font-size: 18px&quot;&gt;13:40:00&lt;/font&gt;" style="text;html=1;strokeColor=none;fillColor=none;align=center;verticalAlign=middle;whiteSpace=wrap;rounded=0;" vertex="1" parent="1">
          <mxGeometry x="2020" y="90" width="60" height="20" as="geometry" />
        </mxCell>
        <mxCell id="9kW-robpji65stOi1-1t-211" value="&lt;font style=&quot;font-size: 18px&quot;&gt;13:45:00&lt;/font&gt;" style="text;html=1;strokeColor=none;fillColor=none;align=center;verticalAlign=middle;whiteSpace=wrap;rounded=0;" vertex="1" parent="1">
          <mxGeometry x="2190" y="90" width="60" height="20" as="geometry" />
        </mxCell>
        <mxCell id="9kW-robpji65stOi1-1t-212" value="&lt;font style=&quot;font-size: 18px&quot;&gt;13:50:00&lt;/font&gt;" style="text;html=1;strokeColor=none;fillColor=none;align=center;verticalAlign=middle;whiteSpace=wrap;rounded=0;" vertex="1" parent="1">
          <mxGeometry x="2360" y="90" width="60" height="20" as="geometry" />
        </mxCell>
        <mxCell id="9kW-robpji65stOi1-1t-213" value="&lt;font style=&quot;font-size: 18px&quot;&gt;13:55:00&lt;/font&gt;" style="text;html=1;strokeColor=none;fillColor=none;align=center;verticalAlign=middle;whiteSpace=wrap;rounded=0;" vertex="1" parent="1">
          <mxGeometry x="2530" y="90" width="60" height="20" as="geometry" />
        </mxCell>
        <mxCell id="9kW-robpji65stOi1-1t-214" value="&lt;font style=&quot;font-size: 18px&quot;&gt;13:45:00&lt;/font&gt;" style="text;html=1;strokeColor=none;fillColor=none;align=center;verticalAlign=middle;whiteSpace=wrap;rounded=0;" vertex="1" parent="1">
          <mxGeometry x="2980" y="90" width="60" height="20" as="geometry" />
        </mxCell>
        <mxCell id="9kW-robpji65stOi1-1t-215" value="&lt;font style=&quot;font-size: 18px&quot;&gt;13:50:00&lt;/font&gt;" style="text;html=1;strokeColor=none;fillColor=none;align=center;verticalAlign=middle;whiteSpace=wrap;rounded=0;" vertex="1" parent="1">
          <mxGeometry x="3150" y="90" width="60" height="20" as="geometry" />
        </mxCell>
        <mxCell id="9kW-robpji65stOi1-1t-216" value="&lt;font style=&quot;font-size: 18px&quot;&gt;13:55:00&lt;/font&gt;" style="text;html=1;strokeColor=none;fillColor=none;align=center;verticalAlign=middle;whiteSpace=wrap;rounded=0;" vertex="1" parent="1">
          <mxGeometry x="3320" y="90" width="60" height="20" as="geometry" />
        </mxCell>
        <mxCell id="9kW-robpji65stOi1-1t-217" value="&lt;font style=&quot;font-size: 18px&quot;&gt;14:00:00&lt;/font&gt;" style="text;html=1;strokeColor=none;fillColor=none;align=center;verticalAlign=middle;whiteSpace=wrap;rounded=0;" vertex="1" parent="1">
          <mxGeometry x="3490" y="90" width="60" height="20" as="geometry" />
        </mxCell>
        <mxCell id="9kW-robpji65stOi1-1t-218" value="" style="endArrow=none;dashed=1;html=1;dashPattern=1 3;strokeWidth=2;align=center;verticalAlign=top;" edge="1" parent="1">
          <mxGeometry width="50" height="50" relative="1" as="geometry">
            <mxPoint x="3520" y="310" as="sourcePoint" />
            <mxPoint x="3520" y="120" as="targetPoint" />
          </mxGeometry>
        </mxCell>
        <mxCell id="9kW-robpji65stOi1-1t-219" value="" style="ellipse;whiteSpace=wrap;html=1;aspect=fixed;verticalAlign=middle;" vertex="1" parent="1">
          <mxGeometry x="2290" y="680" width="30" height="30" as="geometry" />
        </mxCell>
        <mxCell id="9kW-robpji65stOi1-1t-220" value="" style="whiteSpace=wrap;html=1;aspect=fixed;" vertex="1" parent="1">
          <mxGeometry x="2250" y="600" width="30" height="30" as="geometry" />
        </mxCell>
        <mxCell id="9kW-robpji65stOi1-1t-221" value="1" style="whiteSpace=wrap;html=1;aspect=fixed;" vertex="1" parent="1">
          <mxGeometry x="2290" y="600" width="30" height="30" as="geometry" />
        </mxCell>
        <mxCell id="9kW-robpji65stOi1-1t-222" value="1" style="whiteSpace=wrap;html=1;aspect=fixed;" vertex="1" parent="1">
          <mxGeometry x="2330" y="600" width="30" height="30" as="geometry" />
        </mxCell>
        <mxCell id="9kW-robpji65stOi1-1t-223" value="1" style="whiteSpace=wrap;html=1;aspect=fixed;" vertex="1" parent="1">
          <mxGeometry x="2370" y="600" width="30" height="30" as="geometry" />
        </mxCell>
        <mxCell id="9kW-robpji65stOi1-1t-224" value="1" style="whiteSpace=wrap;html=1;aspect=fixed;" vertex="1" parent="1">
          <mxGeometry x="2290" y="640" width="30" height="30" as="geometry" />
        </mxCell>
        <mxCell id="9kW-robpji65stOi1-1t-225" value="1" style="whiteSpace=wrap;html=1;aspect=fixed;" vertex="1" parent="1">
          <mxGeometry x="2330" y="640" width="30" height="30" as="geometry" />
        </mxCell>
        <mxCell id="9kW-robpji65stOi1-1t-226" value="1" style="whiteSpace=wrap;html=1;aspect=fixed;" vertex="1" parent="1">
          <mxGeometry x="2250" y="680" width="30" height="30" as="geometry" />
        </mxCell>
        <mxCell id="9kW-robpji65stOi1-1t-227" value="1" style="whiteSpace=wrap;html=1;aspect=fixed;" vertex="1" parent="1">
          <mxGeometry x="2330" y="680" width="30" height="30" as="geometry" />
        </mxCell>
        <mxCell id="9kW-robpji65stOi1-1t-228" value="1" style="whiteSpace=wrap;html=1;aspect=fixed;" vertex="1" parent="1">
          <mxGeometry x="2370" y="680" width="30" height="30" as="geometry" />
        </mxCell>
        <mxCell id="9kW-robpji65stOi1-1t-229" value="1" style="whiteSpace=wrap;html=1;aspect=fixed;" vertex="1" parent="1">
          <mxGeometry x="2250" y="720" width="30" height="30" as="geometry" />
        </mxCell>
        <mxCell id="9kW-robpji65stOi1-1t-230" value="1" style="whiteSpace=wrap;html=1;aspect=fixed;" vertex="1" parent="1">
          <mxGeometry x="2290" y="720" width="30" height="30" as="geometry" />
        </mxCell>
        <mxCell id="9kW-robpji65stOi1-1t-231" value="1" style="whiteSpace=wrap;html=1;aspect=fixed;" vertex="1" parent="1">
          <mxGeometry x="2330" y="720" width="30" height="30" as="geometry" />
        </mxCell>
        <mxCell id="9kW-robpji65stOi1-1t-232" value="1" style="whiteSpace=wrap;html=1;aspect=fixed;" vertex="1" parent="1">
          <mxGeometry x="2370" y="720" width="30" height="30" as="geometry" />
        </mxCell>
        <mxCell id="9kW-robpji65stOi1-1t-233" value="" style="rhombus;whiteSpace=wrap;html=1;verticalAlign=middle;" vertex="1" parent="1">
          <mxGeometry x="2250" y="640" width="30" height="30" as="geometry" />
        </mxCell>
        <mxCell id="9kW-robpji65stOi1-1t-234" value="" style="triangle;whiteSpace=wrap;html=1;verticalAlign=middle;rotation=-90;" vertex="1" parent="1">
          <mxGeometry x="2370" y="641.3299999999999" width="30" height="28.67" as="geometry" />
        </mxCell>
      </root>
    </mxGraphModel>
  </diagram>
</mxfile>
